<?xml version="1.0" encoding="UTF-8" standalone="no"?>
<!DOCTYPE svg PUBLIC "-//W3C//DTD SVG 1.1//EN" "http://www.w3.org/Graphics/SVG/1.1/DTD/svg11.dtd">
<svg width="100%" height="100%" viewBox="0 0 32 32" version="1.1" xmlns="http://www.w3.org/2000/svg" xmlns:xlink="http://www.w3.org/1999/xlink" xml:space="preserve" xmlns:serif="http://www.serif.com/" style="fill-rule:evenodd;clip-rule:evenodd;stroke-linejoin:round;stroke-miterlimit:2;">
    <g transform="matrix(1,0,0,1,-35,-38)">
        <g id="gl-arrow" transform="matrix(1,0,0,1,35,38)">
            <rect x="0" y="0" width="32" height="32" style="fill:none;"/>
            <g transform="matrix(1.6,0,0,1.6,4.7992,6.38876)">
                <path d="M5.898,1.102C6.003,1.207 6.062,1.35 6.062,1.5C6.062,1.649 6.003,1.792 5.898,1.897L2.358,5.437L13.001,5.437C13.15,5.437 13.293,5.496 13.398,5.602C13.504,5.707 13.563,5.85 13.563,6C13.563,6.149 13.504,6.292 13.398,6.397C13.293,6.503 13.15,6.562 13.001,6.562L2.358,6.562L5.898,10.102C5.953,10.154 5.998,10.216 6.028,10.285C6.059,10.354 6.076,10.428 6.077,10.504C6.078,10.579 6.064,10.654 6.036,10.724C6.008,10.794 5.966,10.858 5.912,10.911C5.859,10.965 5.795,11.007 5.725,11.035C5.655,11.063 5.58,11.077 5.505,11.076C5.429,11.075 5.355,11.058 5.286,11.027C5.217,10.997 5.154,10.952 5.103,10.897L0.603,6.397C0.498,6.292 0.438,6.149 0.438,6C0.438,5.85 0.498,5.707 0.603,5.602L5.103,1.102C5.208,0.997 5.351,0.938 5.5,0.938C5.65,0.938 5.793,0.997 5.898,1.102Z" style="fill:rgb(33,31,31);"/>
            </g>
        </g>
    </g>
</svg>
